<svg xmlns="http://www.w3.org/2000/svg" width="55" height="55" viewBox="0 0 55 55">
  <g id="iconfinder_social_github_1037349" transform="translate(-22.3 -23.7)">
    <g id="Symbol_2_1" data-name="Symbol 2 – 1">
      <path id="Path_20" data-name="Path 20" d="M49.7,23.7c-15.179,0-27.4,12.569-27.4,28.179A28.08,28.08,0,0,0,41.028,78.64c1.38.3,1.873-.608,1.873-1.318V72.457c-7.59,1.723-9.167-3.852-9.167-3.852-1.281-3.244-3.056-4.156-3.056-4.156-2.464-1.723.2-1.723.2-1.723,2.76.2,4.238,2.94,4.238,2.94C37.578,70.024,41.619,68.706,43,68a6.272,6.272,0,0,1,1.774-3.751c-6.111-.71-12.518-3.142-12.518-13.887a10.467,10.467,0,0,1,2.858-7.5,10.348,10.348,0,0,1,.3-7.4s2.366-.811,7.491,2.94a26.547,26.547,0,0,1,13.8,0c5.224-3.649,7.491-2.94,7.491-2.94,1.479,3.953.591,6.791.3,7.4a11.2,11.2,0,0,1,2.858,7.5c0,10.846-6.407,13.177-12.518,13.887A7.018,7.018,0,0,1,56.7,69.517v7.7c0,.71.493,1.622,1.873,1.318A28.211,28.211,0,0,0,77.3,51.778C77.1,36.371,64.881,23.7,49.7,23.7Z" transform="translate(0 0)" fill="#116466"/>
    </g>
  </g>
</svg>
