<svg xmlns="http://www.w3.org/2000/svg" width="55" height="55" viewBox="0 0 55 55">
  <g id="instagram-logo" transform="translate(-933 -2687)">
    <g id="Group_27" data-name="Group 27" transform="translate(933 2687)">
      <g id="Group_26" data-name="Group 26">
        <path id="Path_31" data-name="Path 31" d="M24.825,29.8a4.962,4.962,0,1,0-4.968-4.971A4.978,4.978,0,0,0,24.825,29.8Z" transform="translate(2.674 2.674)" fill="#ffcb9a"/>
        <path id="Path_32" data-name="Path 32" d="M35.678,18.746V13.96l-.623,0-4.164.013.016,4.787Z" transform="translate(3.682 1.665)" fill="#ffcb9a"/>
        <path id="Path_33" data-name="Path 33" d="M27.5,0A27.5,27.5,0,1,0,55,27.5,27.531,27.531,0,0,0,27.5,0ZM43.14,24.291V37.1a6.051,6.051,0,0,1-6.045,6.046H17.905A6.05,6.05,0,0,1,11.86,37.1V17.906a6.05,6.05,0,0,1,6.045-6.045H37.094a6.051,6.051,0,0,1,6.046,6.045Z" fill="#ffcb9a"/>
        <path id="Path_34" data-name="Path 34" d="M32.549,24.826a7.723,7.723,0,1,1-14.877-2.9H13.457v11.56a2.706,2.706,0,0,0,2.706,2.7H33.486a2.707,2.707,0,0,0,2.706-2.7V21.929H31.975A7.617,7.617,0,0,1,32.549,24.826Z" transform="translate(2.674 3.314)" fill="#ffcb9a"/>
      </g>
    </g>
  </g>
</svg>
