<svg xmlns="http://www.w3.org/2000/svg" width="55" height="55" viewBox="0 0 55 55">
  <g id="linkedin" transform="translate(-1685 -40)">
    <circle id="Ellipse_9" data-name="Ellipse 9" cx="27.5" cy="27.5" r="27.5" transform="translate(1685 40)" fill="#116466"/>
    <g id="Group_25" data-name="Group 25" transform="translate(1682.726 37.803)">
      <path id="Path_30" data-name="Path 30" d="M62.644,44.623V57.66H55.017V45.5c0-3.054-1.1-5.14-3.863-5.14a4.168,4.168,0,0,0-3.912,2.764,5.13,5.13,0,0,0-.253,1.842v12.7H39.363s.1-20.6,0-22.732h7.628v3.221c-.015.025-.037.05-.051.074h.051v-.074a7.584,7.584,0,0,1,6.874-3.755c5.018,0,8.78,3.249,8.78,10.23ZM31.384,23.969c-2.609,0-4.316,1.7-4.316,3.927a3.934,3.934,0,0,0,4.216,3.929h.049c2.66,0,4.314-1.746,4.314-3.929a3.947,3.947,0,0,0-4.264-3.927ZM27.521,57.66h7.624V34.927H27.521Z" transform="translate(-15.068 -10.969)" fill="#1a1f1f"/>
    </g>
  </g>
</svg>
