<svg xmlns="http://www.w3.org/2000/svg" width="713" height="247" viewBox="0 0 713 247">
  <g id="Group_32" data-name="Group 32" transform="translate(-603 -1947)">
    <rect id="Rectangle_40" data-name="Rectangle 40" width="600" height="32" transform="translate(603 2076)" fill="#d9b08c"/>
    <rect id="Rectangle_41" data-name="Rectangle 41" width="113" height="32" transform="translate(1203 2076)" fill="#d1e8e2"/>
    <rect id="Rectangle_42" data-name="Rectangle 42" width="519" height="32" transform="translate(603 2119)" fill="#d9b08c"/>
    <rect id="Rectangle_43" data-name="Rectangle 43" width="194" height="32" transform="translate(1122 2119)" fill="#d1e8e2"/>
    <rect id="Rectangle_44" data-name="Rectangle 44" width="390" height="32" transform="translate(603 2033)" fill="#d9b08c"/>
    <rect id="Rectangle_45" data-name="Rectangle 45" width="323" height="32" transform="translate(993 2033)" fill="#d1e8e2"/>
    <rect id="Rectangle_46" data-name="Rectangle 46" width="532" height="32" transform="translate(603 1990)" fill="#d9b08c"/>
    <rect id="Rectangle_47" data-name="Rectangle 47" width="181" height="32" transform="translate(1135 1990)" fill="#d1e8e2"/>
    <rect id="Rectangle_48" data-name="Rectangle 48" width="590" height="32" transform="translate(603 1947)" fill="#d9b08c"/>
    <rect id="Rectangle_49" data-name="Rectangle 49" width="123" height="32" transform="translate(1193 1947)" fill="#d1e8e2"/>
    <rect id="Rectangle_50" data-name="Rectangle 50" width="627" height="32" transform="translate(603 2162)" fill="#d9b08c"/>
    <rect id="Rectangle_51" data-name="Rectangle 51" width="86" height="32" transform="translate(1230 2162)" fill="#d1e8e2"/>
    <text id="React.js" transform="translate(613 2014)" fill="#2c3531" font-size="20" font-family="Lato-Regular, Lato" letter-spacing="0.184em"><tspan x="0" y="0">React.js</tspan></text>
    <text id="Node.js" transform="translate(613 2057)" fill="#2c3531" font-size="20" font-family="Lato-Regular, Lato" letter-spacing="0.184em"><tspan x="0" y="0">Node.js</tspan></text>
    <text id="JavaScript" transform="translate(613 1971)" fill="#2c3531" font-size="20" font-family="Lato-Regular, Lato" letter-spacing="0.184em"><tspan x="0" y="0">JavaScript</tspan></text>
    <text id="AdobeXD" transform="translate(613 2186)" fill="#2c3531" font-size="20" font-family="Lato-Regular, Lato" letter-spacing="0.184em"><tspan x="0" y="0">AdobeXD</tspan></text>
    <text id="HTML" transform="translate(613 2100)" fill="#2c3531" font-size="20" font-family="Lato-Regular, Lato" letter-spacing="0.184em"><tspan x="0" y="0">HTML</tspan></text>
    <text id="CSS" transform="translate(613 2143)" fill="#2c3531" font-size="20" font-family="Lato-Regular, Lato" letter-spacing="0.184em"><tspan x="0" y="0">CSS</tspan></text>
  </g>
</svg>
