<svg xmlns="http://www.w3.org/2000/svg" width="781" height="762.149" viewBox="0 0 781 762.149">
  <g id="Group_31" data-name="Group 31" transform="translate(-570 -248.851)">
    <g id="Group_4" data-name="Group 4" transform="translate(2 26)">
      <g id="Group_2" data-name="Group 2" transform="translate(-11 -19)">
        <line id="Line_15" data-name="Line 15" x1="38.5" y2="43" transform="translate(1180 370.5)" fill="none" stroke="#116466" stroke-linecap="round" stroke-width="8"/>
        <g id="Group_1" data-name="Group 1" opacity="0.98">
          <path id="Path_2" data-name="Path 2" d="M236.8,59.549,0,519.244H473Z" transform="translate(732.5 367.781)" fill="#116466"/>
          <line id="Line_1" data-name="Line 1" x1="38.5" y2="43" transform="translate(1022 524.5)" fill="none" stroke="#116466" stroke-linecap="round" stroke-width="8"/>
          <line id="Line_8" data-name="Line 8" x1="38.5" y2="43" transform="translate(1041 528.5)" fill="none" stroke="#116466" stroke-linecap="round" stroke-width="8"/>
          <line id="Line_9" data-name="Line 9" x1="38.5" y2="43" transform="translate(1069 473.5)" fill="none" stroke="#116466" stroke-linecap="round" stroke-width="8"/>
          <line id="Line_10" data-name="Line 10" x1="38.5" y2="43" transform="translate(1088 473.5)" fill="none" stroke="#116466" stroke-linecap="round" stroke-width="8"/>
          <line id="Line_11" data-name="Line 11" x1="38.5" y2="43" transform="translate(1115 421.5)" fill="none" stroke="#116466" stroke-linecap="round" stroke-width="8"/>
          <line id="Line_12" data-name="Line 12" x1="38.5" y2="43" transform="translate(1161 370.5)" fill="none" stroke="#116466" stroke-linecap="round" stroke-width="8"/>
          <line id="Line_13" data-name="Line 13" x1="38.5" y2="43" transform="translate(1208 317.5)" fill="none" stroke="#116466" stroke-linecap="round" stroke-width="8"/>
          <line id="Line_14" data-name="Line 14" x1="38.5" y2="43" transform="translate(1134 421.5)" fill="none" stroke="#116466" stroke-linecap="round" stroke-width="8"/>
          <line id="Line_16" data-name="Line 16" x1="38.5" y2="43" transform="translate(1227 318.5)" fill="none" stroke="#116466" stroke-linecap="round" stroke-width="8"/>
          <line id="Line_17" data-name="Line 17" y1="100" x2="89" transform="translate(1050.5 479.5)" fill="none" stroke="#d9b08c" stroke-linecap="round" stroke-width="8"/>
          <line id="Line_18" data-name="Line 18" y1="67" x2="60" transform="translate(1146.5 403.5)" fill="none" stroke="#d9b08c" stroke-linecap="round" stroke-width="8"/>
          <line id="Line_19" data-name="Line 19" y1="35" x2="31" transform="translate(1215.5 359.5)" fill="none" stroke="#d9b08c" stroke-linecap="round" stroke-width="8"/>
          <line id="Line_20" data-name="Line 20" y1="35" x2="31" transform="translate(1254.5 316.5)" fill="none" stroke="#d9b08c" stroke-linecap="round" stroke-width="8"/>
          <circle id="Ellipse_1" data-name="Ellipse 1" cx="20" cy="20" r="20" transform="translate(1021 568)" fill="#d9b08c"/>
          <line id="Line_25" data-name="Line 25" x1="38.5" y2="43" transform="translate(1025 500.5)" fill="none" stroke="#116466" stroke-linecap="round" stroke-width="8"/>
          <line id="Line_26" data-name="Line 26" x1="38.5" y2="43" transform="translate(1072 449.5)" fill="none" stroke="#116466" stroke-linecap="round" stroke-width="8"/>
          <line id="Line_27" data-name="Line 27" x1="38.5" y2="43" transform="translate(1118 397.5)" fill="none" stroke="#116466" stroke-linecap="round" stroke-width="8"/>
          <line id="Line_28" data-name="Line 28" x1="38.5" y2="43" transform="translate(1164 346.5)" fill="none" stroke="#116466" stroke-linecap="round" stroke-width="8"/>
          <line id="Line_29" data-name="Line 29" x1="38.5" y2="43" transform="translate(1209 295.5)" fill="none" stroke="#116466" stroke-linecap="round" stroke-width="8"/>
          <line id="Line_30" data-name="Line 30" y1="100" x2="89" transform="translate(1022.5 427.5)" fill="none" stroke="#d9b08c" stroke-linecap="round" stroke-width="8"/>
          <line id="Line_31" data-name="Line 31" y1="67" x2="60" transform="translate(1118.5 351.5)" fill="none" stroke="#d9b08c" stroke-linecap="round" stroke-width="8"/>
          <line id="Line_32" data-name="Line 32" y1="35" x2="31" transform="translate(1187.5 307.5)" fill="none" stroke="#d9b08c" stroke-linecap="round" stroke-width="8"/>
          <line id="Line_33" data-name="Line 33" y1="35" x2="31" transform="translate(1226.5 264.5)" fill="none" stroke="#d9b08c" stroke-linecap="round" stroke-width="8"/>
          <line id="Line_34" data-name="Line 34" x1="38.5" y2="43" transform="translate(1254 266.5)" fill="none" stroke="#116466" stroke-linecap="round" stroke-width="8"/>
          <line id="Line_35" data-name="Line 35" y1="10" x2="9" transform="translate(1265.5 247.5)" fill="none" stroke="#d9b08c" stroke-linecap="round" stroke-width="8"/>
          <line id="Line_36" data-name="Line 36" x1="26.5" y2="29" transform="translate(1257 257.5)" fill="none" stroke="#116466" stroke-linecap="round" stroke-width="8"/>
          <line id="Line_37" data-name="Line 37" x1="29" y2="33" transform="translate(1273.5 276.5)" fill="none" stroke="#116466" stroke-linecap="round" stroke-width="8"/>
          <line id="Line_38" data-name="Line 38" y1="23" x2="20" transform="translate(1292.5 286.5)" fill="none" stroke="#d9b08c" stroke-linecap="round" stroke-width="8"/>
          <g id="Ellipse_4" data-name="Ellipse 4" transform="translate(995 514)" fill="#d9b08c" stroke="#d9b08c" stroke-width="1">
            <circle cx="20" cy="20" r="20" stroke="none"/>
            <circle cx="20" cy="20" r="19.5" fill="none"/>
          </g>
        </g>
      </g>
      <text id="web_developer" data-name="web developer" transform="translate(634.297 319.086) rotate(25)" fill="#d9b08c" font-size="28" font-family="Lato-Regular, Lato" letter-spacing="0.184em"><tspan x="0" y="0">web developer</tspan></text>
      <text id="intergalactic_pirate" data-name="intergalactic pirate" transform="translate(701.279 429.124) rotate(25)" fill="#d9b08c" font-size="28" font-family="Lato-Regular, Lato" letter-spacing="0.184em"><tspan x="0" y="0">intergalactic pirate</tspan></text>
      <text id="web_designer" data-name="web designer" transform="translate(668.219 373.946) rotate(25)" fill="#d9b08c" font-size="28" font-family="Lato-Regular, Lato" letter-spacing="0.184em"><tspan x="0" y="0">web designer</tspan></text>
    </g>
    <g id="Group_29" data-name="Group 29" transform="translate(0 -950)">
      <g id="iconfinder_node-js_1269842" transform="translate(556 1846)">
        <path id="Path_5" data-name="Path 5" d="M64,14a50,50,0,1,0,50,50A50.018,50.018,0,0,0,64,14Z" fill="#116466"/>
        <g id="Group_8" data-name="Group 8">
          <path id="Path_6" data-name="Path 6" d="M64,95.9a4.514,4.514,0,0,1-2.5-.7l-7.8-4.6c-1.2-.7-.6-.9-.2-1A18.134,18.134,0,0,0,57,88a.471.471,0,0,1,.6.1l6,3.6a.854.854,0,0,0,.7,0L87.7,78.2a.822.822,0,0,0,.4-.6v-27a.548.548,0,0,0-.4-.6L64.4,36.4a.854.854,0,0,0-.7,0L40.3,49.8a.822.822,0,0,0-.4.6v27a.622.622,0,0,0,.4.6l6.4,3.7c3.5,1.7,5.6-.3,5.6-2.4V52.8a.684.684,0,0,1,.7-.7h3a.684.684,0,0,1,.7.7V79.4c0,4.7-2.5,7.3-6.9,7.3-1.4,0-2.4,0-5.4-1.5l-6.1-3.5a5.043,5.043,0,0,1-2.5-4.3v-27a4.953,4.953,0,0,1,2.5-4.3L61.7,32.6a5.3,5.3,0,0,1,4.9,0L90,46.1a5.043,5.043,0,0,1,2.5,4.3v27A4.953,4.953,0,0,1,90,81.7L66.5,95.3A5.421,5.421,0,0,1,64,95.9Z" fill="#116466"/>
          <path id="Path_7" data-name="Path 7" d="M71.3,77.3c-10.2,0-12.4-4.7-12.4-8.6a.684.684,0,0,1,.7-.7h3a.73.73,0,0,1,.7.6c.4,3.1,1.8,4.6,8,4.6,4.9,0,7-1.1,7-3.7,0-1.5-.6-2.6-8.3-3.4-6.4-.6-10.4-2-10.4-7.2,0-4.7,4-7.5,10.7-7.5,7.5,0,11.2,2.6,11.7,8.2a.684.684,0,0,1-.7.7h-3a.752.752,0,0,1-.7-.5c-.7-3.2-2.5-4.3-7.3-4.3-5.4,0-6,1.9-6,3.3,0,1.7.7,2.2,8,3.2,7.2.9,10.6,2.3,10.6,7.3C82.9,74.4,78.7,77.3,71.3,77.3Z" fill="#116466"/>
        </g>
        <g id="Group_21" data-name="Group 21">
          <path id="Path_6-2" data-name="Path 6" d="M64,95.9a4.514,4.514,0,0,1-2.5-.7l-7.8-4.6c-1.2-.7-.6-.9-.2-1A18.134,18.134,0,0,0,57,88a.471.471,0,0,1,.6.1l6,3.6a.854.854,0,0,0,.7,0L87.7,78.2a.822.822,0,0,0,.4-.6v-27a.548.548,0,0,0-.4-.6L64.4,36.4a.854.854,0,0,0-.7,0L40.3,49.8a.822.822,0,0,0-.4.6v27a.622.622,0,0,0,.4.6l6.4,3.7c3.5,1.7,5.6-.3,5.6-2.4V52.8a.684.684,0,0,1,.7-.7h3a.684.684,0,0,1,.7.7V79.4c0,4.7-2.5,7.3-6.9,7.3-1.4,0-2.4,0-5.4-1.5l-6.1-3.5a5.043,5.043,0,0,1-2.5-4.3v-27a4.953,4.953,0,0,1,2.5-4.3L61.7,32.6a5.3,5.3,0,0,1,4.9,0L90,46.1a5.043,5.043,0,0,1,2.5,4.3v27A4.953,4.953,0,0,1,90,81.7L66.5,95.3A5.421,5.421,0,0,1,64,95.9Z" fill="#d1e8e2"/>
          <path id="Path_7-2" data-name="Path 7" d="M71.3,77.3c-10.2,0-12.4-4.7-12.4-8.6a.684.684,0,0,1,.7-.7h3a.73.73,0,0,1,.7.6c.4,3.1,1.8,4.6,8,4.6,4.9,0,7-1.1,7-3.7,0-1.5-.6-2.6-8.3-3.4-6.4-.6-10.4-2-10.4-7.2,0-4.7,4-7.5,10.7-7.5,7.5,0,11.2,2.6,11.7,8.2a.684.684,0,0,1-.7.7h-3a.752.752,0,0,1-.7-.5c-.7-3.2-2.5-4.3-7.3-4.3-5.4,0-6,1.9-6,3.3,0,1.7.7,2.2,8,3.2,7.2.9,10.6,2.3,10.6,7.3C82.9,74.4,78.7,77.3,71.3,77.3Z" fill="#d1e8e2"/>
        </g>
        <g id="Group_23" data-name="Group 23">
          <path id="Path_6-3" data-name="Path 6" d="M64,95.9a4.514,4.514,0,0,1-2.5-.7l-7.8-4.6c-1.2-.7-.6-.9-.2-1A18.134,18.134,0,0,0,57,88a.471.471,0,0,1,.6.1l6,3.6a.854.854,0,0,0,.7,0L87.7,78.2a.822.822,0,0,0,.4-.6v-27a.548.548,0,0,0-.4-.6L64.4,36.4a.854.854,0,0,0-.7,0L40.3,49.8a.822.822,0,0,0-.4.6v27a.622.622,0,0,0,.4.6l6.4,3.7c3.5,1.7,5.6-.3,5.6-2.4V52.8a.684.684,0,0,1,.7-.7h3a.684.684,0,0,1,.7.7V79.4c0,4.7-2.5,7.3-6.9,7.3-1.4,0-2.4,0-5.4-1.5l-6.1-3.5a5.043,5.043,0,0,1-2.5-4.3v-27a4.953,4.953,0,0,1,2.5-4.3L61.7,32.6a5.3,5.3,0,0,1,4.9,0L90,46.1a5.043,5.043,0,0,1,2.5,4.3v27A4.953,4.953,0,0,1,90,81.7L66.5,95.3A5.421,5.421,0,0,1,64,95.9Z" fill="#d9b08c"/>
          <path id="Path_7-3" data-name="Path 7" d="M71.3,77.3c-10.2,0-12.4-4.7-12.4-8.6a.684.684,0,0,1,.7-.7h3a.73.73,0,0,1,.7.6c.4,3.1,1.8,4.6,8,4.6,4.9,0,7-1.1,7-3.7,0-1.5-.6-2.6-8.3-3.4-6.4-.6-10.4-2-10.4-7.2,0-4.7,4-7.5,10.7-7.5,7.5,0,11.2,2.6,11.7,8.2a.684.684,0,0,1-.7.7h-3a.752.752,0,0,1-.7-.5c-.7-3.2-2.5-4.3-7.3-4.3-5.4,0-6,1.9-6,3.3,0,1.7.7,2.2,8,3.2,7.2.9,10.6,2.3,10.6,7.3C82.9,74.4,78.7,77.3,71.3,77.3Z" fill="#d9b08c"/>
        </g>
      </g>
      <g id="iconfinder_react_1296845" transform="translate(692 1846)">
        <g id="Group_12" data-name="Group 12">
          <g id="Group_11" data-name="Group 11">
            <g id="Group_10" data-name="Group 10">
              <g id="Group_9" data-name="Group 9">
                <circle id="Ellipse_6" data-name="Ellipse 6" cx="50" cy="50" r="50" transform="translate(14 14)" fill="#116466"/>
              </g>
            </g>
          </g>
        </g>
        <g id="Group_13" data-name="Group 13">
          <circle id="Ellipse_7" data-name="Ellipse 7" cx="5.5" cy="5.5" r="5.5" transform="translate(58.5 58.4)" fill="#d1e8e2"/>
          <path id="Path_8" data-name="Path 8" d="M91.6,58.5a24.759,24.759,0,0,0-7.8-4.1c-.6-.2-1.3-.4-2-.6.1-.5.2-.9.3-1.4,1.5-7.4.4-13.2-2.8-15.1-1.6-.9-3.8-.9-6.3,0A25.917,25.917,0,0,0,65.6,42a19.2,19.2,0,0,0-1.5,1.4c-.3-.3-.7-.6-1-.9-5.6-5-11.2-7-14.5-5.1-1.6.9-2.7,2.8-3.2,5.5a24.49,24.49,0,0,0,.4,8.8,14.619,14.619,0,0,0,.5,2c-.8.2-1.6.5-2.3.7-6.7,2.3-10.7,5.9-10.7,9.5,0,1.9,1.1,3.9,3.2,5.6a25.179,25.179,0,0,0,8,4.3,8.447,8.447,0,0,0,1.7.5c-.2.7-.3,1.5-.5,2.2-1.3,6.9-.2,12.2,2.9,14a5.426,5.426,0,0,0,2.9.7,9.955,9.955,0,0,0,3.6-.7,24.278,24.278,0,0,0,7.7-4.8c.4-.4.9-.8,1.3-1.2.6.5,1.1,1,1.7,1.5,3.9,3.4,7.7,5.2,10.7,5.2a5.426,5.426,0,0,0,2.9-.7,8.039,8.039,0,0,0,3.3-5.6,23.667,23.667,0,0,0-.3-9.1,9.362,9.362,0,0,0-.4-1.6,3.582,3.582,0,0,0,1.1-.4c7.2-2.4,11.6-6.2,11.6-10C94.7,62.1,93.6,60.2,91.6,58.5ZM73.9,39.8c1.8-.6,3.2-.7,4.1-.2,1.8,1,3,5.3,1.6,12.3l-.3,1.2a66.965,66.965,0,0,0-8.2-1.3,59.178,59.178,0,0,0-5.2-6.5A16.6,16.6,0,0,1,67.3,44,23.947,23.947,0,0,1,73.9,39.8ZM72.6,69c-1,1.7-1.9,3.3-2.9,4.7-1.8.1-3.7.2-5.6.2s-3.8-.1-5.6-.2a56,56,0,0,1-3-4.8,47.393,47.393,0,0,1-2.6-5c.8-1.7,1.7-3.3,2.6-4.9h0l3-4.8c1.8-.1,3.7-.2,5.6-.2s3.8.1,5.6.2c1,1.5,2,3.1,3,4.7,1,1.7,1.9,3.3,2.7,4.9C74.4,65.6,73.6,67.3,72.6,69Zm4-2q1.2,2.85,2.1,5.4c-1.8.4-3.7.7-5.7,1,.6-1,1.3-2.1,1.9-3.1C75.5,69.2,76.1,68.1,76.6,67ZM64.1,80.9a57.044,57.044,0,0,1-3.7-4.4c1.2,0,2.4.1,3.6.1,1.3,0,2.5,0,3.7-.1A56.692,56.692,0,0,1,64.1,80.9Zm-9-7.5a48.545,48.545,0,0,1-5.7-.9,39.336,39.336,0,0,1,2-5.4c.6,1.1,1.1,2.1,1.7,3.2C53.8,71.4,54.4,72.4,55.1,73.4ZM53.2,57.7c-.6,1.1-1.2,2.1-1.7,3.2-.8-1.8-1.4-3.6-2-5.3,1.8-.4,3.6-.7,5.6-1C54.4,55.6,53.8,56.7,53.2,57.7ZM64,47.2a56.692,56.692,0,0,1,3.6,4.4c-1.2-.1-2.4-.1-3.7-.1-1.2,0-2.4,0-3.6.1C61.6,50,62.8,48.5,64,47.2ZM74.8,57.7a32.068,32.068,0,0,0-1.9-3.1,46.508,46.508,0,0,1,5.6,1,43.608,43.608,0,0,1-2,5.3A20.071,20.071,0,0,0,74.8,57.7ZM48.3,51.2a21.067,21.067,0,0,1-.3-7.8,5.432,5.432,0,0,1,1.9-3.7c1.8-1,6.1,0,11.4,4.8l.9.9A59.178,59.178,0,0,0,57,51.9a64.018,64.018,0,0,0-8.2,1.3C48.6,52.4,48.5,51.8,48.3,51.2ZM45.4,71.4c-6.5-2.2-9.5-5.4-9.5-7.5,0-2,2.8-4.9,8.9-7,.7-.2,1.4-.5,2.1-.7a77.192,77.192,0,0,0,3,7.8,55.158,55.158,0,0,0-3,7.9C46.4,71.7,45.9,71.6,45.4,71.4Zm6.1,17.3a2.537,2.537,0,0,1-1.6-.4c-1.7-1-2.9-4.8-1.6-11.2.1-.7.3-1.3.4-2A50.165,50.165,0,0,0,57,76.3a59.613,59.613,0,0,0,5.3,6.5c-.4.4-.8.7-1.2,1.1C57.2,87.3,53.7,88.7,51.5,88.7ZM79.8,76.4c1.3,6.7,0,10.9-1.7,11.9s-5.6.1-10.5-4.2a19.2,19.2,0,0,1-1.5-1.4,73.913,73.913,0,0,0,5.2-6.5,62.916,62.916,0,0,0,8.3-1.3A7.718,7.718,0,0,0,79.8,76.4Zm2.5-5c-.3.1-.7.2-1,.3a66.32,66.32,0,0,0-3.1-7.8,67.7,67.7,0,0,0,3-7.7l1.8.6a23.222,23.222,0,0,1,6.9,3.6c1.4,1.2,2.2,2.4,2.2,3.5C92.1,66,89,69.2,82.3,71.4Z" fill="#d1e8e2"/>
        </g>
        <g id="Group_22" data-name="Group 22">
          <circle id="Ellipse_7-2" data-name="Ellipse 7" cx="5.5" cy="5.5" r="5.5" transform="translate(58.5 58.4)" fill="#d1e8e2"/>
          <path id="Path_8-2" data-name="Path 8" d="M91.6,58.5a24.759,24.759,0,0,0-7.8-4.1c-.6-.2-1.3-.4-2-.6.1-.5.2-.9.3-1.4,1.5-7.4.4-13.2-2.8-15.1-1.6-.9-3.8-.9-6.3,0A25.917,25.917,0,0,0,65.6,42a19.2,19.2,0,0,0-1.5,1.4c-.3-.3-.7-.6-1-.9-5.6-5-11.2-7-14.5-5.1-1.6.9-2.7,2.8-3.2,5.5a24.49,24.49,0,0,0,.4,8.8,14.619,14.619,0,0,0,.5,2c-.8.2-1.6.5-2.3.7-6.7,2.3-10.7,5.9-10.7,9.5,0,1.9,1.1,3.9,3.2,5.6a25.179,25.179,0,0,0,8,4.3,8.447,8.447,0,0,0,1.7.5c-.2.7-.3,1.5-.5,2.2-1.3,6.9-.2,12.2,2.9,14a5.426,5.426,0,0,0,2.9.7,9.955,9.955,0,0,0,3.6-.7,24.278,24.278,0,0,0,7.7-4.8c.4-.4.9-.8,1.3-1.2.6.5,1.1,1,1.7,1.5,3.9,3.4,7.7,5.2,10.7,5.2a5.426,5.426,0,0,0,2.9-.7,8.039,8.039,0,0,0,3.3-5.6,23.667,23.667,0,0,0-.3-9.1,9.362,9.362,0,0,0-.4-1.6,3.582,3.582,0,0,0,1.1-.4c7.2-2.4,11.6-6.2,11.6-10C94.7,62.1,93.6,60.2,91.6,58.5ZM73.9,39.8c1.8-.6,3.2-.7,4.1-.2,1.8,1,3,5.3,1.6,12.3l-.3,1.2a66.965,66.965,0,0,0-8.2-1.3,59.178,59.178,0,0,0-5.2-6.5A16.6,16.6,0,0,1,67.3,44,23.947,23.947,0,0,1,73.9,39.8ZM72.6,69c-1,1.7-1.9,3.3-2.9,4.7-1.8.1-3.7.2-5.6.2s-3.8-.1-5.6-.2a56,56,0,0,1-3-4.8,47.393,47.393,0,0,1-2.6-5c.8-1.7,1.7-3.3,2.6-4.9h0l3-4.8c1.8-.1,3.7-.2,5.6-.2s3.8.1,5.6.2c1,1.5,2,3.1,3,4.7,1,1.7,1.9,3.3,2.7,4.9C74.4,65.6,73.6,67.3,72.6,69Zm4-2q1.2,2.85,2.1,5.4c-1.8.4-3.7.7-5.7,1,.6-1,1.3-2.1,1.9-3.1C75.5,69.2,76.1,68.1,76.6,67ZM64.1,80.9a57.044,57.044,0,0,1-3.7-4.4c1.2,0,2.4.1,3.6.1,1.3,0,2.5,0,3.7-.1A56.692,56.692,0,0,1,64.1,80.9Zm-9-7.5a48.545,48.545,0,0,1-5.7-.9,39.336,39.336,0,0,1,2-5.4c.6,1.1,1.1,2.1,1.7,3.2C53.8,71.4,54.4,72.4,55.1,73.4ZM53.2,57.7c-.6,1.1-1.2,2.1-1.7,3.2-.8-1.8-1.4-3.6-2-5.3,1.8-.4,3.6-.7,5.6-1C54.4,55.6,53.8,56.7,53.2,57.7ZM64,47.2a56.692,56.692,0,0,1,3.6,4.4c-1.2-.1-2.4-.1-3.7-.1-1.2,0-2.4,0-3.6.1C61.6,50,62.8,48.5,64,47.2ZM74.8,57.7a32.068,32.068,0,0,0-1.9-3.1,46.508,46.508,0,0,1,5.6,1,43.608,43.608,0,0,1-2,5.3A20.071,20.071,0,0,0,74.8,57.7ZM48.3,51.2a21.067,21.067,0,0,1-.3-7.8,5.432,5.432,0,0,1,1.9-3.7c1.8-1,6.1,0,11.4,4.8l.9.9A59.178,59.178,0,0,0,57,51.9a64.018,64.018,0,0,0-8.2,1.3C48.6,52.4,48.5,51.8,48.3,51.2ZM45.4,71.4c-6.5-2.2-9.5-5.4-9.5-7.5,0-2,2.8-4.9,8.9-7,.7-.2,1.4-.5,2.1-.7a77.192,77.192,0,0,0,3,7.8,55.158,55.158,0,0,0-3,7.9C46.4,71.7,45.9,71.6,45.4,71.4Zm6.1,17.3a2.537,2.537,0,0,1-1.6-.4c-1.7-1-2.9-4.8-1.6-11.2.1-.7.3-1.3.4-2A50.165,50.165,0,0,0,57,76.3a59.613,59.613,0,0,0,5.3,6.5c-.4.4-.8.7-1.2,1.1C57.2,87.3,53.7,88.7,51.5,88.7ZM79.8,76.4c1.3,6.7,0,10.9-1.7,11.9s-5.6.1-10.5-4.2a19.2,19.2,0,0,1-1.5-1.4,73.913,73.913,0,0,0,5.2-6.5,62.916,62.916,0,0,0,8.3-1.3A7.718,7.718,0,0,0,79.8,76.4Zm2.5-5c-.3.1-.7.2-1,.3a66.32,66.32,0,0,0-3.1-7.8,67.7,67.7,0,0,0,3-7.7l1.8.6a23.222,23.222,0,0,1,6.9,3.6c1.4,1.2,2.2,2.4,2.2,3.5C92.1,66,89,69.2,82.3,71.4Z" fill="#d1e8e2"/>
        </g>
        <g id="Group_24" data-name="Group 24">
          <circle id="Ellipse_7-3" data-name="Ellipse 7" cx="5.5" cy="5.5" r="5.5" transform="translate(58.5 58.4)" fill="#d9b08c"/>
          <path id="Path_8-3" data-name="Path 8" d="M91.6,58.5a24.759,24.759,0,0,0-7.8-4.1c-.6-.2-1.3-.4-2-.6.1-.5.2-.9.3-1.4,1.5-7.4.4-13.2-2.8-15.1-1.6-.9-3.8-.9-6.3,0A25.917,25.917,0,0,0,65.6,42a19.2,19.2,0,0,0-1.5,1.4c-.3-.3-.7-.6-1-.9-5.6-5-11.2-7-14.5-5.1-1.6.9-2.7,2.8-3.2,5.5a24.49,24.49,0,0,0,.4,8.8,14.619,14.619,0,0,0,.5,2c-.8.2-1.6.5-2.3.7-6.7,2.3-10.7,5.9-10.7,9.5,0,1.9,1.1,3.9,3.2,5.6a25.179,25.179,0,0,0,8,4.3,8.447,8.447,0,0,0,1.7.5c-.2.7-.3,1.5-.5,2.2-1.3,6.9-.2,12.2,2.9,14a5.426,5.426,0,0,0,2.9.7,9.955,9.955,0,0,0,3.6-.7,24.278,24.278,0,0,0,7.7-4.8c.4-.4.9-.8,1.3-1.2.6.5,1.1,1,1.7,1.5,3.9,3.4,7.7,5.2,10.7,5.2a5.426,5.426,0,0,0,2.9-.7,8.039,8.039,0,0,0,3.3-5.6,23.667,23.667,0,0,0-.3-9.1,9.362,9.362,0,0,0-.4-1.6,3.582,3.582,0,0,0,1.1-.4c7.2-2.4,11.6-6.2,11.6-10C94.7,62.1,93.6,60.2,91.6,58.5ZM73.9,39.8c1.8-.6,3.2-.7,4.1-.2,1.8,1,3,5.3,1.6,12.3l-.3,1.2a66.965,66.965,0,0,0-8.2-1.3,59.178,59.178,0,0,0-5.2-6.5A16.6,16.6,0,0,1,67.3,44,23.947,23.947,0,0,1,73.9,39.8ZM72.6,69c-1,1.7-1.9,3.3-2.9,4.7-1.8.1-3.7.2-5.6.2s-3.8-.1-5.6-.2a56,56,0,0,1-3-4.8,47.393,47.393,0,0,1-2.6-5c.8-1.7,1.7-3.3,2.6-4.9h0l3-4.8c1.8-.1,3.7-.2,5.6-.2s3.8.1,5.6.2c1,1.5,2,3.1,3,4.7,1,1.7,1.9,3.3,2.7,4.9C74.4,65.6,73.6,67.3,72.6,69Zm4-2q1.2,2.85,2.1,5.4c-1.8.4-3.7.7-5.7,1,.6-1,1.3-2.1,1.9-3.1C75.5,69.2,76.1,68.1,76.6,67ZM64.1,80.9a57.044,57.044,0,0,1-3.7-4.4c1.2,0,2.4.1,3.6.1,1.3,0,2.5,0,3.7-.1A56.692,56.692,0,0,1,64.1,80.9Zm-9-7.5a48.545,48.545,0,0,1-5.7-.9,39.336,39.336,0,0,1,2-5.4c.6,1.1,1.1,2.1,1.7,3.2C53.8,71.4,54.4,72.4,55.1,73.4ZM53.2,57.7c-.6,1.1-1.2,2.1-1.7,3.2-.8-1.8-1.4-3.6-2-5.3,1.8-.4,3.6-.7,5.6-1C54.4,55.6,53.8,56.7,53.2,57.7ZM64,47.2a56.692,56.692,0,0,1,3.6,4.4c-1.2-.1-2.4-.1-3.7-.1-1.2,0-2.4,0-3.6.1C61.6,50,62.8,48.5,64,47.2ZM74.8,57.7a32.068,32.068,0,0,0-1.9-3.1,46.508,46.508,0,0,1,5.6,1,43.608,43.608,0,0,1-2,5.3A20.071,20.071,0,0,0,74.8,57.7ZM48.3,51.2a21.067,21.067,0,0,1-.3-7.8,5.432,5.432,0,0,1,1.9-3.7c1.8-1,6.1,0,11.4,4.8l.9.9A59.178,59.178,0,0,0,57,51.9a64.018,64.018,0,0,0-8.2,1.3C48.6,52.4,48.5,51.8,48.3,51.2ZM45.4,71.4c-6.5-2.2-9.5-5.4-9.5-7.5,0-2,2.8-4.9,8.9-7,.7-.2,1.4-.5,2.1-.7a77.192,77.192,0,0,0,3,7.8,55.158,55.158,0,0,0-3,7.9C46.4,71.7,45.9,71.6,45.4,71.4Zm6.1,17.3a2.537,2.537,0,0,1-1.6-.4c-1.7-1-2.9-4.8-1.6-11.2.1-.7.3-1.3.4-2A50.165,50.165,0,0,0,57,76.3a59.613,59.613,0,0,0,5.3,6.5c-.4.4-.8.7-1.2,1.1C57.2,87.3,53.7,88.7,51.5,88.7ZM79.8,76.4c1.3,6.7,0,10.9-1.7,11.9s-5.6.1-10.5-4.2a19.2,19.2,0,0,1-1.5-1.4,73.913,73.913,0,0,0,5.2-6.5,62.916,62.916,0,0,0,8.3-1.3A7.718,7.718,0,0,0,79.8,76.4Zm2.5-5c-.3.1-.7.2-1,.3a66.32,66.32,0,0,0-3.1-7.8,67.7,67.7,0,0,0,3-7.7l1.8.6a23.222,23.222,0,0,1,6.9,3.6c1.4,1.2,2.2,2.4,2.2,3.5C92.1,66,89,69.2,82.3,71.4Z" fill="#d9b08c"/>
        </g>
      </g>
      <g id="iconfinder_code-programming-html-markup-develop-layout-language_652583" transform="translate(828 1846)">
        <g id="Group_15" data-name="Group 15">
          <g id="Group_14" data-name="Group 14">
            <circle id="Ellipse_8" data-name="Ellipse 8" cx="50" cy="50" r="50" transform="translate(14 14)" fill="#116466"/>
          </g>
        </g>
        <path id="Path_9" data-name="Path 9" d="M40.2,39l4.3,48.5L63.9,93l19.5-5.5L87.8,39ZM78.4,54.8H55.6l.5,6.1H77.8L76.1,79.3,64,82.6h-.1L51.7,79.2,51,69.9h5.9l.4,4.7,6.6,1.8,6.6-1.8.7-7.7H50.7l-1.6-18H78.9Z" fill="#fff"/>
        <path id="Path_21" data-name="Path 21" d="M40.2,39l4.3,48.5L63.9,93l19.5-5.5L87.8,39ZM78.4,54.8H55.6l.5,6.1H77.8L76.1,79.3,64,82.6h-.1L51.7,79.2,51,69.9h5.9l.4,4.7,6.6,1.8,6.6-1.8.7-7.7H50.7l-1.6-18H78.9Z" fill="#d1e8e2"/>
        <path id="Path_23" data-name="Path 23" d="M40.2,39l4.3,48.5L63.9,93l19.5-5.5L87.8,39ZM78.4,54.8H55.6l.5,6.1H77.8L76.1,79.3,64,82.6h-.1L51.7,79.2,51,69.9h5.9l.4,4.7,6.6,1.8,6.6-1.8.7-7.7H50.7l-1.6-18H78.9Z" fill="#ffcb9a"/>
      </g>
      <g id="iconfinder_code-programming-css-style-develop-layout-language_652584" transform="translate(964 1847)">
        <g id="Group_7" data-name="Group 7">
          <g id="Group_6" data-name="Group 6">
            <circle id="Ellipse_5" data-name="Ellipse 5" cx="50" cy="50" r="50" transform="translate(14 14)" fill="#116466"/>
          </g>
        </g>
        <path id="Path_4" data-name="Path 4" d="M90,42,82,82,57.9,90,37,82l2.1-10.7H48l-.9,4.4,12.7,4.8,14.6-4.8,2-10.2H40.2l1.7-8.9H78.2l1.1-5.7H43.1L44.9,42Z" fill="#fff"/>
        <path id="Path_22" data-name="Path 22" d="M90,42,82,82,57.9,90,37,82l2.1-10.7H48l-.9,4.4,12.7,4.8,14.6-4.8,2-10.2H40.2l1.7-8.9H78.2l1.1-5.7H43.1L44.9,42Z" fill="#d1e8e2"/>
        <path id="Path_24" data-name="Path 24" d="M90,42,82,82,57.9,90,37,82l2.1-10.7H48l-.9,4.4,12.7,4.8,14.6-4.8,2-10.2H40.2l1.7-8.9H78.2l1.1-5.7H43.1L44.9,42Z" fill="#ffcb9a"/>
      </g>
      <g id="iconfinder_Adobe_XD_2745033" transform="translate(1109 1856)">
        <g id="Social_icons" transform="translate(12 1)">
          <g id="Adobe_XD" transform="translate(-7 3)">
            <path id="path0_fill" d="M0,50a50.006,50.006,0,1,1,50,50A50,50,0,0,1,0,50Z" fill="#116466"/>
            <path id="path0_fill-2" data-name="path0_fill" d="M3,50A47,47,0,1,1,50,97,47,47,0,0,1,3,50Z" fill="#116466"/>
            <path id="Shape" d="M58.7,32.8a4.854,4.854,0,0,0-1.964-.323c-4.266,0-7.109,3.127-7.109,8.318,0,5.932,2.912,8.318,6.7,8.318a6.678,6.678,0,0,0,2.336-.355V32.8ZM43.537,41.051c0-7.511,5.078-13.379,13.406-13.379a15.768,15.768,0,0,1,1.76.064V19.355a.332.332,0,0,1,.339-.322h5.451c.271,0,.339.1.339.258V48.756A21.87,21.87,0,0,0,65,51.916c0,.226,0,.258-.2.355a21.011,21.011,0,0,1-8.667,1.87c-7.346,0-12.594-4.32-12.594-13.089ZM31.992,35.828l9.479,17.506c.169.258.068.516-.2.516H35.378a.667.667,0,0,1-.711-.419c-2.167-4.256-4.367-8.672-6.636-13.25h-.068c-2.031,4.32-4.265,9.027-6.432,13.282a.655.655,0,0,1-.609.355H15.3c-.338,0-.372-.258-.2-.451l9.276-16.99L15.4,19.484A.285.285,0,0,1,15.641,19h5.823c.338,0,.508.064.609.355,2.133,4.288,4.3,8.511,6.331,12.831h.068c1.964-4.255,4.13-8.543,6.2-12.766.169-.258.271-.419.609-.419h5.451c.271,0,.372.193.2.484L31.992,35.828Z" transform="translate(10 14.074)" fill="#ffcb9a"/>
          </g>
        </g>
      </g>
      <g id="iconfinder_node_3069651" transform="translate(1250 1860)">
        <path id="ellipse" d="M50,0A50,50,0,1,1,0,50,50,50,0,0,1,50,0Z" transform="translate(1 1)" fill="#116466"/>
        <g id="logo" transform="translate(-55 -210)">
          <path id="Path_12" data-name="Path 12" d="M101.687,248.216a.987.987,0,0,0-.574-.88l-9.264-4.9a1.329,1.329,0,0,0-.5-.141h-.115a.817.817,0,0,0-.5.141l-9.264,4.9a1.029,1.029,0,0,0-.574.88l.038,13.171a.59.59,0,0,0,.268.458.492.492,0,0,0,.536,0l5.512-2.888a1.029,1.029,0,0,0,.574-.88v-6.163a1.029,1.029,0,0,1,.574-.88l2.335-1.233a1.24,1.24,0,0,1,1.148,0l2.335,1.233a1.029,1.029,0,0,1,.574.88v6.128a1.029,1.029,0,0,0,.574.88l5.512,2.888a.559.559,0,0,0,.574,0,.54.54,0,0,0,.268-.458Z" transform="translate(-15 0.275)" fill="#ffcb9a"/>
          <path id="Path_13" data-name="Path 13" d="M237.779,207.468a.508.508,0,0,0-.468,0,.472.472,0,0,0-.218.4v11.293a.318.318,0,0,1-.156.274.289.289,0,0,1-.312,0l-1.9-1.065a.953.953,0,0,0-.9,0l-7.549,4.262a.894.894,0,0,0-.468.761v8.493a.894.894,0,0,0,.468.761l7.549,4.262a.953.953,0,0,0,.9,0l7.549-4.262a.894.894,0,0,0,.468-.761V210.695a.857.857,0,0,0-.468-.761Zm-.686,21.613a.167.167,0,0,1-.125.183l-2.589,1.461a.272.272,0,0,1-.218,0l-2.589-1.461a.25.25,0,0,1-.125-.183v-2.922a.167.167,0,0,1,.125-.183l2.589-1.461a.272.272,0,0,1,.218,0l2.589,1.461a.25.25,0,0,1,.125.183v2.922Z" transform="translate(-116 25.182)" fill="#ffcb9a"/>
          <path id="Path_14" data-name="Path 14" d="M315.314,250.966a.939.939,0,0,0,.491-.8v-2.175a.94.94,0,0,0-.491-.8l-7.855-4.446a1,1,0,0,0-.949,0l-7.92,4.478a.94.94,0,0,0-.491.8v8.925a.939.939,0,0,0,.491.8l7.855,4.382a1,1,0,0,0,.949,0l4.745-2.591a.527.527,0,0,0,.262-.416.543.543,0,0,0-.229-.416l-7.953-4.478a.432.432,0,0,1-.229-.416v-2.751a.544.544,0,0,1,.229-.416l2.487-1.407a.454.454,0,0,1,.491,0l2.487,1.407a.432.432,0,0,1,.229.416v2.207a.543.543,0,0,0,.229.416.455.455,0,0,0,.491,0Z" transform="translate(-168 -0.05)" fill="#ffcb9a"/>
          <path id="Path_15" data-name="Path 15" d="M161.639,242.545a.963.963,0,0,1,.93,0l7.758,4.432a.939.939,0,0,1,.481.8v8.9a.939.939,0,0,1-.481.8l-7.758,4.464a.963.963,0,0,1-.93,0l-7.758-4.464a.938.938,0,0,1-.481-.8v-8.9a.938.938,0,0,1,.481-.8Z" transform="translate(-64 0.15)" fill="#ffcb9a"/>
          <path id="Path_16" data-name="Path 16" d="M379.451,262.566a1.736,1.736,0,0,1-.816-.2l-2.584-1.5c-.374-.2-.2-.3-.068-.333a3.955,3.955,0,0,0,1.156-.533.221.221,0,0,1,.2,0l1.972,1.167a.3.3,0,0,0,.238,0l7.753-4.4a.236.236,0,0,0,.1-.2V247.8a.183.183,0,0,0-.136-.2l-7.685-4.366a.3.3,0,0,0-.238,0L371.6,247.6a.274.274,0,0,0-.136.2v8.766a.183.183,0,0,0,.136.2l2.108,1.2c1.156.567,1.87-.1,1.87-.767v-8.666a.23.23,0,0,1,.238-.233h.986a.23.23,0,0,1,.238.233V257.2a2.126,2.126,0,0,1-2.278,2.367,3.484,3.484,0,0,1-1.8-.467l-2.04-1.133a1.59,1.59,0,0,1-.816-1.4V247.8a1.63,1.63,0,0,1,.816-1.4l7.753-4.4a1.765,1.765,0,0,1,1.632,0l7.753,4.4a1.59,1.59,0,0,1,.816,1.4v8.766a1.63,1.63,0,0,1-.816,1.4l-7.787,4.4A1.641,1.641,0,0,1,379.451,262.566Z" transform="translate(-271 21)" fill="#ffcb9a"/>
          <path id="Path_17" data-name="Path 17" d="M396.5,270.331c-3.227,0-3.9-1.74-3.9-3.177a.242.242,0,0,1,.226-.265h.936c.1,0,.194.076.226.227.129,1.135.581,1.7,2.517,1.7,1.549,0,2.194-.416,2.194-1.362,0-.567-.194-.983-2.582-1.248-2-.227-3.259-.756-3.259-2.647,0-1.74,1.259-2.761,3.356-2.761,2.356,0,3.517.946,3.679,3.026,0,.076,0,.151-.065.189a.229.229,0,0,1-.161.076H398.7a.192.192,0,0,1-.194-.189c-.226-1.21-.775-1.588-2.291-1.588-1.678,0-1.9.681-1.9,1.21,0,.643.226.794,2.517,1.172,2.259.34,3.324.832,3.324,2.723C400.151,269.234,398.828,270.331,396.5,270.331Z" transform="translate(-286 8.402)" fill="#ffcb9a"/>
          <path id="Path_18" data-name="Path 18" d="M321.741,267.349a.244.244,0,0,1,.213,0l1.635.88a.178.178,0,0,1,.107.163v1.76a.178.178,0,0,1-.107.163l-1.635.88a.245.245,0,0,1-.213,0l-1.635-.88a.178.178,0,0,1-.107-.163v-1.76a.178.178,0,0,1,.107-.163Z" transform="translate(-183 -16.945)" fill="#ffcb9a"/>
          <g id="Group_20" data-name="Group 20" transform="translate(-273 -2)">
            <path id="Path_19" data-name="Path 19" d="M436.2,247.2a2,2,0,0,1-4,0,1.988,1.988,0,0,1,2-2A2.018,2.018,0,0,1,436.2,247.2Zm-3.682,0a1.682,1.682,0,1,0,1.682-1.682A1.739,1.739,0,0,0,432.518,247.2Zm.954-1.091h.773c.273,0,.773,0,.773.591a.516.516,0,0,1-.409.545c.318,0,.318.227.364.5a1.138,1.138,0,0,0,.136.591h-.454c0-.091-.091-.682-.091-.727-.045-.136-.091-.182-.227-.182h-.409v.909h-.455v-2.227Zm.409.955h.364a.284.284,0,0,0,.318-.318c0-.318-.227-.318-.318-.318h-.364v.636Z" transform="translate(-42 20)" fill="#ffcb9a"/>
          </g>
        </g>
      </g>
      <text id="MY_WEAPONS" data-name="MY WEAPONS" transform="translate(860 1834)" fill="#ffcb9a" font-size="24" font-family="Lato-Regular, Lato" letter-spacing="0.184em"><tspan x="0" y="0">MY WEAPONS</tspan></text>
    </g>
  </g>
</svg>
