<svg xmlns="http://www.w3.org/2000/svg" width="55" height="55" viewBox="0 0 55 55">
  <g id="tumblr-logo-button" transform="translate(-853 -2687)">
    <g id="Group_28" data-name="Group 28" transform="translate(853 2687)">
      <path id="Path_35" data-name="Path 35" d="M27.5,0A27.5,27.5,0,1,0,55,27.5,27.531,27.531,0,0,0,27.5,0Zm9.3,40.608a17.7,17.7,0,0,1-3.472,1.267,14.83,14.83,0,0,1-3.359.363,9.143,9.143,0,0,1-3.223-.517,7.873,7.873,0,0,1-2.688-1.477,5.33,5.33,0,0,1-1.543-2.037,8.837,8.837,0,0,1-.431-3.133V24.589H18.018V20.353a10.589,10.589,0,0,0,3.372-1.639,8.16,8.16,0,0,0,2.016-2.568,11.512,11.512,0,0,0,1.05-3.808h4.252v6.913h6.913V24.59H28.709v7.665a13,13,0,0,0,.162,3.228,2.779,2.779,0,0,0,1.138,1.289,4.339,4.339,0,0,0,2.27.6,8.152,8.152,0,0,0,4.517-1.475v4.714h0Z" fill="#ffcb9a"/>
    </g>
  </g>
</svg>
